<svg width="88" height="131" viewBox="0 0 88 131" fill="none" xmlns="http://www.w3.org/2000/svg">
<path d="M18.6801 94.1569C24.146 84.189 30.4488 73.0182 37.1004 61.5132C43.7515 50.0092 50.2879 38.9729 56.1998 29.2613C55.5912 29.0563 54.9784 28.8671 54.3623 28.6939C52.0458 28.0427 49.654 27.6107 47.2533 27.4097C44.8897 27.2119 42.491 27.2357 40.1238 27.4805C37.7737 27.7236 35.432 28.1869 33.1637 28.8575C30.8927 29.529 28.674 30.4144 26.5692 31.4894C24.4445 32.5746 22.4144 33.864 20.5351 35.322C18.6221 36.8061 16.8431 38.4824 15.2475 40.3044C13.6095 42.1747 12.1419 44.225 10.8853 46.3984C9.6288 48.5718 8.58454 50.8662 7.7815 53.2178C6.99926 55.5086 6.43501 57.8853 6.1044 60.2819C5.77964 62.6359 5.67643 65.0365 5.79765 67.4168C5.91771 69.7746 6.2591 72.1361 6.8123 74.4359C7.36481 76.7328 8.13386 78.9897 9.09806 81.1438C10.0692 83.3134 11.2479 85.3999 12.6014 87.3453C13.976 89.3212 15.5465 91.1738 17.2693 92.8515C17.7275 93.2977 18.1981 93.7331 18.6801 94.1569ZM31.8177 101.732C32.4263 101.937 33.0391 102.126 33.6552 102.299C35.9716 102.95 38.3634 103.382 40.7642 103.583C43.1278 103.781 45.5266 103.757 47.8937 103.513C50.2439 103.27 52.5856 102.806 54.854 102.136C57.1248 101.464 59.3435 100.579 61.4483 99.5039C63.5732 98.4186 65.6035 97.1291 67.4826 95.6713C69.3955 94.1872 71.1745 92.5109 72.7701 90.689C74.4081 88.8186 75.8758 86.7683 77.1322 84.595C78.3887 82.4218 79.433 80.1274 80.2361 77.7755C81.0184 75.4846 81.5827 73.1079 81.9132 70.7114C82.238 68.3573 82.3412 65.9567 82.22 63.5764C82.0999 61.2188 81.7586 58.8572 81.2053 56.5574C80.6528 54.2603 79.8837 52.0034 78.9195 49.8494C77.9483 47.6796 76.7696 45.5931 75.4161 43.6477C74.0417 41.672 72.4712 39.8196 70.7482 38.1416C70.29 37.6954 69.8195 37.2601 69.3375 36.8362C63.8717 46.8038 57.569 57.9744 50.9172 69.4797C44.2653 80.985 37.7291 92.0211 31.8177 101.732ZM6.49534 130.381C6.28445 130.26 6.45544 129.481 7.00341 128.066C7.53551 126.692 8.42454 124.714 9.64575 122.188C12.0425 117.23 15.7282 110.144 20.3046 101.697C20.9697 102.13 21.6587 102.553 22.353 102.953C23.0455 103.353 23.7567 103.737 24.4668 104.097C19.4284 112.279 15.1264 119.01 12.0259 123.56C10.4454 125.88 9.17485 127.637 8.24947 128.784C7.2964 129.966 6.70623 130.503 6.49534 130.381ZM20.3046 101.697C17.9544 100.165 15.7494 98.401 13.7518 96.4556C11.8002 94.555 10.0212 92.4566 8.46424 90.2186C6.93209 88.0164 5.59806 85.6549 4.49916 83.1999C3.40871 80.7638 2.53897 78.2115 1.91416 75.614C1.28856 73.0133 0.902466 70.3423 0.766619 67.6751C0.629427 64.9807 0.746323 62.263 1.11405 59.5975C1.48855 56.8827 2.12769 54.1905 3.01381 51.5955C3.92245 48.9345 5.10325 46.3398 6.52341 43.8834C7.94358 41.427 9.6034 39.1085 11.4568 36.9922C13.2642 34.9284 15.2794 33.0295 17.4465 31.3483C19.5744 29.6974 21.8728 28.2375 24.2779 27.0092C26.6587 25.7931 29.1681 24.7916 31.7364 24.0323C34.3015 23.2739 36.9497 22.7501 39.6075 22.4751C42.286 22.198 45.0009 22.1711 47.6767 22.3952C50.3958 22.6227 53.1051 23.1121 55.7292 23.8498C58.4152 24.6048 61.0468 25.6299 63.5507 26.8965C56.9017 37.695 49.2636 50.5348 41.4624 64.0282C33.6629 77.5184 26.3467 90.5439 20.3046 101.697ZM24.4668 104.097C31.1172 93.2958 38.7553 80.4558 46.5553 66.9647C54.3552 53.4736 61.6714 40.4481 67.713 29.2964C70.0639 30.829 72.2684 32.5924 74.2657 34.5376C76.2175 36.4383 77.9965 38.5367 79.5533 40.7746C81.0853 42.9766 82.4194 45.338 83.5184 47.7932C84.6089 50.2294 85.4786 52.7816 86.1035 55.3792C86.7291 57.9801 87.1152 60.6511 87.251 63.3182C87.3882 66.0124 87.2713 68.7301 86.9036 71.3958C86.5291 74.1107 85.8899 76.803 85.0038 79.3979C84.0951 82.059 82.9143 84.6537 81.4942 87.11C80.074 89.5664 78.4142 91.8849 76.5608 94.0012C74.7534 96.065 72.7382 97.9639 70.5711 99.645C68.4434 101.296 66.1449 102.756 63.7397 103.984C61.3588 105.2 58.8494 106.202 56.2812 106.961C53.7161 107.719 51.0679 108.243 48.41 108.518C45.7315 108.795 43.0166 108.822 40.3408 108.598C37.6216 108.37 34.9124 107.881 32.2883 107.143C29.6024 106.388 26.9707 105.363 24.4668 104.097ZM67.713 29.2964C67.0485 28.8628 66.3591 28.4401 65.6647 28.0398C64.9718 27.6402 64.2605 27.2556 63.5507 26.8965C68.5897 18.7129 72.8918 11.9827 75.9918 7.43314C77.5721 5.11389 78.8426 3.35623 79.7682 2.209C80.7213 1.02764 81.3115 0.490246 81.5224 0.61184C81.7332 0.733434 81.5623 1.51251 81.0143 2.92745C80.4822 4.30125 79.5932 6.2789 78.3719 8.80546C75.9748 13.7641 72.2891 20.8498 67.713 29.2964Z" fill="#DEC056"/>
</svg>
